<svg width="400" height="324" viewBox="0 0 400 324" fill="none" xmlns="http://www.w3.org/2000/svg">
<path d="M302.486 6.15217C266.672 21.1479 249.493 61.6156 264.116 96.5393C278.739 131.463 261.728 171.86 226.121 186.769C190.514 201.678 149.794 185.453 135.171 150.53C120.548 115.606 79.6612 99.4512 43.8471 114.447C8.03305 129.443 -9.14578 169.91 5.47713 204.834C20.1 239.758 60.9873 255.913 96.8014 240.917C132.615 225.921 175.35 246.488 189.973 281.411C204.596 316.335 245.315 332.56 280.922 317.651C316.529 302.742 333.54 262.344 318.917 227.421C304.294 192.497 321.473 152.029 357.287 137.034C393.101 122.038 408.433 77.1586 393.81 42.2349C379.187 7.31125 338.3 -8.84356 302.486 6.15217Z" fill="#E6E6E6"/>
</svg>
